<?xml version="1.0" encoding="utf-8"?>
<!DOCTYPE svg PUBLIC "-//W3C//DTD SVG 1.1//EN" "http://www.w3.org/Graphics/SVG/1.1/DTD/svg11.dtd">
<svg version="1.1" xmlns="http://www.w3.org/2000/svg" xmlns:xlink="http://www.w3.org/1999/xlink" viewBox="260 260 264 88" xml:space="preserve" width="100%" height="100%">
<path fill="#444444" d="M341.136,293.323c0.877-0.051,1.614-0.415,2.208-1.092c0.594-0.678,0.891-1.492,0.89-2.443
	c0-0.707-0.227-1.273-0.678-1.697c-0.452-0.423-1.02-0.616-1.704-0.576c-0.839,0.049-1.559,0.421-2.159,1.119
	c-0.6,0.697-0.9,1.528-0.9,2.492c0,0.746,0.204,1.31,0.61,1.691C339.81,293.198,340.388,293.367,341.136,293.323z M378.887,311.479
	l-0.774,2.648c1.11-0.102,2.078-0.271,2.904-0.506c0.826-0.234,1.562-0.543,2.207-0.928c0.31,0.381,0.739,0.658,1.288,0.83
	c0.549,0.175,1.19,0.24,1.927,0.197c1.548-0.09,3-0.74,4.356-1.949c1.355-1.211,2.722-3.077,4.104-5.601
	c-0.362,1.05-0.62,1.908-0.774,2.572c-0.154,0.665-0.232,1.223-0.232,1.672c0,1.016,0.413,1.712,1.239,2.088
	c0.826,0.377,2.251,0.506,4.279,0.388l0.349-0.021c1.045-0.111,2.067-0.402,3.067-0.871c1.001-0.471,1.914-1.082,2.74-1.838
	c0.516,0.741,1.355,1.281,2.518,1.618c1.161,0.338,2.6,0.456,4.316,0.356l0.465-0.027l0.756-2.646
	c-1.381,0.002-2.42-0.182-3.117-0.552s-1.046-0.923-1.047-1.656c0-0.321,0.052-0.738,0.156-1.253
	c0.102-0.514,0.264-1.124,0.483-1.831l1.897-6.339l2.846-0.166c0.516-0.03,0.877-0.103,1.084-0.217
	c0.206-0.115,0.349-0.297,0.426-0.546l0.329-0.944c0.013-0.053,0.022-0.105,0.029-0.156c0.007-0.052,0.009-0.11,0.009-0.174
	c0-0.154-0.064-0.263-0.193-0.327c-0.129-0.063-0.316-0.087-0.561-0.073l-3.253,0.189l2.226-6.649
	c0.078-0.236,0.194-0.551,0.349-0.946c0.297-0.75,0.446-1.253,0.446-1.51c0-0.386-0.24-0.671-0.717-0.856
	c-0.479-0.184-1.143-0.252-1.994-0.203c-1.201,0.07-2.002,0.953-2.401,2.647c-0.142,0.6-0.265,1.07-0.368,1.41l-1.896,6.359
	l-1.433,0.083c-0.556,0.032-0.927,0.099-1.113,0.2s-0.319,0.275-0.397,0.524l-0.31,0.944c-0.038,0.118-0.062,0.197-0.067,0.235
	c-0.007,0.04-0.01,0.072-0.01,0.097c0,0.181,0.051,0.303,0.154,0.367c0.104,0.065,0.297,0.089,0.582,0.072l1.877-0.109l-1.625,5.822
	c-0.62,2.235-1.334,3.791-2.139,4.666c-0.808,0.877-1.934,1.428-3.379,1.652l-0.006,0.018c-1.133-0.036-1.861-0.145-2.182-0.323
	c-0.323-0.181-0.484-0.528-0.484-1.042c0-0.746,0.216-1.822,0.648-3.23c0.432-1.407,1.074-3.106,1.926-5.097
	c0.426-1.001,0.916-2.059,1.472-3.171c0.555-1.112,0.833-1.732,0.833-1.861c0-0.411-0.333-0.75-0.998-1.013
	s-1.442-0.369-2.333-0.317c-0.323,0.019-0.567,0.103-0.735,0.254s-0.336,0.495-0.504,1.032l-0.271,0.884
	c-0.541-0.509-1.116-0.868-1.723-1.077c-0.607-0.209-1.33-0.289-2.168-0.24c-1.678,0.097-3.302,0.677-4.87,1.739
	c-1.568,1.062-2.998,2.556-4.289,4.483c-0.838,1.271-1.49,2.551-1.955,3.845c-0.464,1.294-0.697,2.475-0.697,3.541
	c0,0.334,0.013,0.646,0.039,0.934s0.065,0.564,0.117,0.832c-0.452,0.283-0.958,0.512-1.52,0.687S379.597,311.399,378.887,311.479z
	 M387.376,305.479c0.484-1.192,1.139-2.333,1.965-3.422c0.903-1.184,1.848-2.133,2.835-2.845c0.988-0.714,1.862-1.092,2.624-1.136
	c0.349-0.021,0.694,0.024,1.036,0.132c0.342,0.109,0.688,0.289,1.036,0.538c-1.639,3.734-3.213,6.584-4.724,8.549
	c-1.51,1.965-2.897,2.984-4.163,3.058c-0.452,0.026-0.787-0.106-1.006-0.395c-0.22-0.289-0.329-0.749-0.33-1.38
	C386.65,307.705,386.892,306.672,387.376,305.479z M417.938,307.957c-0.685,0.426-1.378,0.762-2.081,1.008s-1.443,0.411-2.217,0.494
	l-0.756,2.647c1.137-0.155,2.124-0.39,2.963-0.702c0.839-0.312,1.633-0.747,2.381-1.305c0.232,0.553,0.62,0.955,1.162,1.205
	c0.542,0.251,1.227,0.353,2.053,0.305c1.238-0.072,2.424-0.609,3.553-1.613s2.648-2.977,4.559-5.917
	c-0.322,1.061-0.555,1.917-0.697,2.567c-0.141,0.652-0.212,1.196-0.212,1.633c0,1.08,0.358,1.814,1.074,2.203
	c0.717,0.39,1.997,0.529,3.844,0.422l0.368-0.021l0.001-0.005c2.513-0.297,4.685-1.581,6.514-3.854
	c1.839-2.287,3.624-5.967,5.353-11.044c0.801,0.417,1.368,0.766,1.704,1.048c0.335,0.283,0.503,0.565,0.503,0.849
	c0,0.592-0.486,1.967-1.461,4.125c-0.975,2.159-1.461,3.772-1.461,4.84c0,1.195,0.509,2.031,1.529,2.505
	c1.02,0.474,2.691,0.644,5.015,0.509l0.581-0.034l0.754-2.628c-1.484-0.041-2.404-0.146-2.759-0.312
	c-0.354-0.165-0.532-0.48-0.532-0.943c0-0.771,0.516-2.26,1.549-4.468c1.032-2.208,1.549-3.735,1.549-4.584
	c0-1.003-0.949-1.957-2.847-2.862c-1.046-0.518-1.897-0.964-2.556-1.337c0.143-0.278,0.244-0.551,0.31-0.818
	c0.064-0.267,0.097-0.556,0.097-0.864c0-0.643-0.207-1.145-0.619-1.507c-0.414-0.362-0.976-0.521-1.686-0.48
	c-0.773,0.045-1.416,0.388-1.926,1.028c-0.51,0.641-0.765,1.423-0.765,2.349c0,0.463,0.071,0.871,0.213,1.222
	c0.142,0.352,0.361,0.667,0.659,0.945c-1.742,4.807-3.279,8.198-4.608,10.172c-1.327,1.973-2.791,3.14-4.391,3.503
	c-0.985,0.018-1.648-0.087-1.988-0.317c-0.343-0.23-0.513-0.667-0.513-1.311c-0.001-0.681,0.15-1.587,0.453-2.717
	c0.304-1.129,0.771-2.522,1.404-4.18c0.451-1.183,0.975-2.448,1.568-3.794s0.891-2.09,0.891-2.231c0-0.386-0.323-0.701-0.969-0.947
	c-0.645-0.245-1.394-0.343-2.246-0.293c-0.903,0.053-1.613,1-2.129,2.843c-0.504,1.791-1.039,3.352-1.607,4.684
	c-1.02,2.451-2.098,4.42-3.232,5.906c-1.136,1.487-2.143,2.257-3.02,2.308c-0.375,0.021-0.662-0.065-0.861-0.259
	c-0.201-0.194-0.301-0.49-0.301-0.89c0-0.476,0.164-1.23,0.493-2.266c0.329-1.034,0.894-2.546,1.694-4.534
	c0.489-1.211,1.041-2.478,1.654-3.799c0.613-1.321,0.92-2.052,0.92-2.194c0-0.373-0.423-0.699-1.268-0.977
	c-0.846-0.279-1.708-0.393-2.586-0.342c-0.658,0.039-1.322,1.1-1.994,3.183c-0.206,0.629-0.374,1.128-0.503,1.495
	c-0.129,0.406-0.323,0.983-0.581,1.731c-1.354,4-2.032,6.637-2.032,7.91c0.001,0.192,0.003,0.337,0.011,0.433
	C417.916,307.774,417.926,307.867,417.938,307.957z M488.17,302.546c-0.096-0.588-0.338-1.159-0.674-1.636
	c-0.347-0.482-0.734-0.845-1.207-1.179c-0.131-0.095-0.194-0.127-0.295-0.193c-0.137-0.087-0.268-0.16-0.413-0.229
	c-0.284-0.138-0.603-0.232-0.919-0.28c-0.641-0.1-1.246-0.002-1.766,0.147c-1.036,0.318-1.836,0.808-2.61,1.279
	c-0.767,0.479-1.487,0.97-2.206,1.442c-1.433,0.946-2.86,1.818-4.354,2.508c-2.744,1.293-5.688,1.882-8.683,1.705
	c-0.604-0.18-1.167-0.483-1.683-0.931c1.858-1.509,3.346-3.212,4.463-5.11c1.116-1.897,1.674-3.604,1.674-5.121
	c0-1.389-0.391-2.463-1.171-3.221c-0.781-0.757-1.844-1.098-3.186-1.02c-2.4,0.14-4.482,1.213-6.244,3.217
	c-1.762,2.006-2.643,4.294-2.643,6.866c0,1.105,0.117,2.063,0.349,2.872c0.233,0.81,0.595,1.521,1.085,2.136
	c-0.71,0.35-1.441,0.637-2.197,0.86c-0.756,0.225-1.578,0.395-2.469,0.51l-0.774,2.648c1.278-0.125,2.546-0.386,3.804-0.78
	c1.26-0.395,2.515-0.924,3.767-1.588c0.8,0.609,1.749,1.039,2.846,1.291c1.098,0.25,2.368,0.334,3.814,0.25l0.522-0.03l0.021-0.07
	c0.87-0.063,1.741-0.177,2.59-0.354c1.826-0.379,3.585-1.021,5.22-1.843c1.64-0.818,3.154-1.813,4.59-2.825
	c1.421-0.979,2.844-2.109,4.127-2.563c0.311-0.1,0.584-0.14,0.806-0.112c0.113,0.013,0.219,0.038,0.326,0.086
	c0.052,0.022,0.114,0.052,0.159,0.081c0.081,0.053,0.209,0.126,0.251,0.163c0.519,0.361,0.893,0.847,0.972,1.376
	c0.099,0.534-0.063,1.194-0.406,1.773c-0.168,0.288-0.385,0.558-0.605,0.754l-0.973,0.806c-2.635,2.127-5.508,4.008-8.534,5.569
	c-6.058,3.15-12.729,5.05-19.517,6.096c-6.804,1.027-13.729,1.232-20.642,1.094c-13.846-0.262-27.646-2.084-41.564-2.865
	c-6.957-0.42-13.953-0.641-20.961-0.299c-5.675,0.271-11.371,0.885-16.98,2.06c0.396-1.109,1.222-3.429,1.221-3.428l0.736-1.823
	l4.936-12.22c0.193-0.526,0.32-0.899,0.378-1.122c0.058-0.222,0.086-0.423,0.086-0.603c0-0.386-0.171-0.649-0.513-0.791
	c-0.342-0.14-0.952-0.185-1.83-0.134c-1.033,0.06-1.685,0.217-1.956,0.47c-0.271,0.254-0.491,0.816-0.658,1.688
	c-0.594-0.532-1.207-0.907-1.839-1.127c-0.633-0.221-1.368-0.306-2.207-0.257c-1.678,0.097-3.292,0.676-4.841,1.737
	c-1.548,1.061-2.975,2.555-4.279,4.482c-0.838,1.271-1.49,2.552-1.955,3.845c-0.465,1.294-0.697,2.475-0.697,3.542
	c0,0.334,0.013,0.645,0.039,0.933c0.026,0.288,0.065,0.564,0.117,0.832c-0.452,0.283-0.958,0.512-1.52,0.687
	c-0.529,0.164-1.129,0.282-1.79,0.362c-0.668-0.037-1.139-0.124-1.402-0.264c-0.361-0.191-0.542-0.557-0.542-1.098
	c0-0.398,0.232-1.285,0.697-2.662l0.078-0.236l1.858-5.701c0.194-0.628,0.513-1.515,0.958-2.659c0.445-1.144,0.668-1.91,0.668-2.295
	c0-0.282-0.133-0.491-0.397-0.623c-0.265-0.132-0.649-0.184-1.152-0.155c-2.156,0.125-3.427,1.17-3.814,3.134
	c-0.193,0.924-0.362,1.686-0.503,2.285c-0.955,3.785-1.971,6.522-3.049,8.21c-1.077,1.689-2.377,2.604-3.9,2.743l-0.004,0.016
	c-0.494-0.047-0.948-0.1-1.36-0.158c-0.42-0.059-0.817-0.129-1.19-0.21c0.632-0.86,1.1-1.749,1.403-2.667
	c0.303-0.916,0.455-1.883,0.455-2.898c0-1.711-0.455-3.195-1.366-4.454c-0.91-1.258-2.359-2.389-4.347-3.393
	c-0.154-0.081-0.407-0.208-0.755-0.38c-2.659-1.299-3.989-2.79-3.989-4.475c0-1.466,0.594-2.696,1.781-3.691
	c1.188-0.995,2.737-1.547,4.647-1.659c1.575-0.091,2.785,0.147,3.63,0.715c0.845,0.568,1.339,1.479,1.481,2.73l0.271-0.016
	c0.735-0.043,1.316-0.292,1.743-0.748c0.425-0.455,0.638-1.056,0.638-1.802c0-1.362-0.675-2.452-2.023-3.267
	c-1.349-0.815-3.082-1.161-5.199-1.038c-3.304,0.192-6.012,1.223-8.122,3.094c-2.109,1.872-3.165,4.177-3.165,6.916
	c0,1.568,0.404,2.873,1.21,3.912c0.807,1.04,2.346,2.137,4.618,3.29c1.949,1.005,3.188,1.856,3.718,2.551
	c0.53,0.696,0.794,1.564,0.794,2.607c0,0.654-0.129,1.356-0.388,2.104c-0.258,0.748-0.606,1.432-1.044,2.049
	c-0.904-0.191-2.163-0.46-3.776-0.803c-4.583-0.981-7.577-1.432-8.983-1.35c-1.704,0.099-2.982,0.523-3.834,1.274
	c-0.852,0.749-1.277,1.819-1.277,3.208c0,1.852,0.888,3.291,2.662,4.32c1.775,1.027,4.167,1.455,7.174,1.279
	c2.052-0.119,3.937-0.582,5.653-1.389c1.717-0.808,3.214-1.936,4.492-3.386c0.491,0.101,1.029,0.181,1.617,0.243
	c0.587,0.063,1.287,0.102,2.1,0.119c1.084-0.113,2.068-0.42,2.953-0.914s1.707-1.201,2.469-2.12
	c0.155,0.942,0.648,1.604,1.481,1.987s2.081,0.524,3.747,0.428l0.677-0.039l0.037-0.135c0.686-0.098,1.331-0.215,1.887-0.372
	c0.826-0.235,1.562-0.544,2.208-0.929c0.31,0.381,0.739,0.658,1.288,0.831c0.548,0.174,1.19,0.239,1.926,0.196
	c1.549-0.09,3.001-0.74,4.356-1.949c1.355-1.211,2.723-3.077,4.104-5.602c-0.581,1.59-1.171,3.104-1.771,4.54
	c-0.601,1.437-1.216,2.821-1.849,4.157c-1.82,1.006-3.152,1.998-3.998,2.98c-0.846,0.982-1.269,2.025-1.269,3.131
	c0,0.758,0.223,1.33,0.668,1.717c0.445,0.385,1.081,0.555,1.907,0.506c1.278-0.074,2.459-0.796,3.543-2.164
	c0.59-0.744,1.227-1.801,1.908-3.162c6.063-1.65,12.339-2.615,18.663-3.063c6.869-0.475,13.79-0.424,20.708-0.126
	c13.838,0.646,27.678,2.167,41.633,2.548c6.975,0.156,13.994-0.043,20.944-1.068c6.939-0.998,13.837-2.877,20.161-6.086
	c3.164-1.594,6.156-3.507,8.949-5.717l1.043-0.848c0.43-0.379,0.759-0.798,1.034-1.256
	C488.016,304.855,488.362,303.739,488.17,302.546z M461.811,303.265c-0.322-0.353-0.555-0.755-0.696-1.203
	c-0.143-0.449-0.213-0.987-0.213-1.617c0-1.659,0.413-3.139,1.238-4.44c0.825-1.302,1.774-1.984,2.847-2.046
	c0.516-0.03,0.91,0.092,1.181,0.365c0.271,0.274,0.407,0.688,0.407,1.24c0,1.105-0.459,2.428-1.375,3.965
	C464.283,301.068,463.153,302.313,461.811,303.265z M317.662,318.94c-1.013,0.374-2.165,0.599-3.456,0.673
	c-1.871,0.109-3.391-0.092-4.56-0.603c-1.168-0.511-1.752-1.202-1.752-2.077c0-0.449,0.126-0.779,0.377-0.986
	c0.252-0.208,0.681-0.328,1.288-0.364c0.62-0.036,1.784,0.086,3.495,0.366c1.71,0.279,4.14,0.752,7.29,1.418
	C319.569,318.043,318.676,318.566,317.662,318.94z M352.452,310.795c-1.51,1.965-2.897,2.984-4.163,3.058
	c-0.452,0.026-0.787-0.105-1.006-0.395c-0.22-0.289-0.329-0.749-0.33-1.38c0-0.873,0.242-1.906,0.726-3.098
	c0.484-1.193,1.139-2.333,1.965-3.422c0.903-1.185,1.849-2.133,2.836-2.846c0.987-0.713,1.862-1.092,2.624-1.136
	c0.348-0.021,0.693,0.024,1.036,0.132c0.342,0.109,0.688,0.288,1.036,0.537C355.536,305.98,353.962,308.83,352.452,310.795z
	 M361.617,313.196c-0.155,0.331-0.268,0.604-0.339,0.821c-0.071,0.215-0.106,0.389-0.106,0.516c0,0.244,0.104,0.41,0.31,0.493
	c0.206,0.085,0.567,0.112,1.084,0.081c1.575-0.091,2.633-0.885,3.175-2.383c0.284-0.813,0.548-1.503,0.794-2.07
	c1.2-2.821,2.597-5.242,4.191-7.264s2.771-3.055,3.533-3.099c0.232-0.014,0.403,0.028,0.513,0.125
	c0.109,0.097,0.165,0.254,0.165,0.473c0,0.27-0.329,1.164-0.987,2.68l-0.155,0.375c-0.762,1.819-1.33,3.311-1.704,4.477
	c-0.375,1.166-0.561,2.025-0.561,2.578c0,1.209,0.494,2.067,1.481,2.576c0.988,0.508,2.54,0.7,4.657,0.577l0.445-0.026l0.736-2.646
	c-1.072,0-1.788-0.088-2.149-0.26s-0.542-0.495-0.542-0.972c0-0.282,0.093-0.767,0.28-1.453c0.187-0.686,0.442-1.43,0.765-2.234
	l0.484-1.243c1.497-3.777,2.246-6.103,2.246-6.978c0-0.771-0.226-1.359-0.677-1.763c-0.453-0.404-1.085-0.583-1.898-0.536
	c-1.6,0.093-3.237,0.937-4.908,2.532s-3.153,4.38-5.43,7.579c0.769-1.832,1.633-3.725,2.593-5.682
	c0.959-1.956,1.449-3.042,1.466-3.26c0.024-0.295-0.173-0.505-0.59-0.629c-0.417-0.126-1.137-0.199-2.158-0.222
	c-1.125-0.025-2.042,1.149-2.75,3.521c-0.449,1.462-0.873,2.748-1.277,3.877c-0.728,2.183-1.703,6.886-2.71,9.46
	C361.6,313.21,361.609,313.205,361.617,313.196z"/>
</svg>
